<svg version="1.1" xmlns="http://www.w3.org/2000/svg" xmlns:xlink="http://www.w3.org/1999/xlink" width="71.91134"
    height="71.91134" viewBox="0,0,71.91134,71.91134">
    <g transform="translate(-204.04433,-144.04433)">
        <g data-paper-data="{&quot;isPaintingLayer&quot;:true}" fill-rule="nonzero" stroke="none" stroke-width="0"
            stroke-linecap="butt" stroke-linejoin="miter" stroke-miterlimit="10" stroke-dasharray=""
            stroke-dashoffset="0" style="mix-blend-mode: normal">
            <path d="M204.04433,215.95567v-71.91134h71.91134v71.91134z" fill="none" />
            <path
                d="M207.21689,205.55558c0,-3.89758 0,-22.58207 0,-22.58207h13.01655v25.33788c0,0 -8.77788,0 -10.98113,0c-0.94857,0 -2.03543,-1.39425 -2.03543,-2.75581z"
                fill="currentcolor" />
            <path
                d="M251.74321,208.31139v-56.63951c0,0 14.48113,0 17.98145,0c1.4436,0 3.05845,1.67665 3.05845,3.56336c0,6.09486 0,39.17229 0,49.79204c0,2.06776 -1.47405,3.28411 -2.82542,3.28411c-3.43117,0 -18.21449,0 -18.21449,0z"
                fill="currentcolor" />
            <path
                d="M207.21689,181.36822c0,0 0,-22.17721 0,-26.66127c0,-1.51291 1.30602,-3.03506 2.38497,-3.03506c2.27803,0 10.63158,0 10.63158,0v29.69633z"
                fill="currentcolor" />
            <path d="M221.82521,181.42211v-29.69633h28.35253v29.69633z" fill="currentcolor" />
            <path d="M221.82521,208.45338v-25.33788h28.35253v25.33788z" fill="currentcolor" />
        </g>
    </g>
</svg>